<svg id="Layer_1" enable-background="new 0 0 512.219 512.219" height="512" viewBox="0 0 512.219 512.219" width="512" xmlns="http://www.w3.org/2000/svg"><path d="m437.443 95.933c20.495 2.023 43.622-1.195 58.304-15.877 22.575-22.575 15.59-62.099 14.719-66.532l-1.942-9.885-9.885-1.942c-4.434-.871-43.957-7.856-66.531 14.719-17.291 17.291-17.239 44.509-15.876 58.303l-11.976 11.976c-16.529-14.554-34.764-26.484-54.202-35.576l35.377-23.585-16.642-24.961-53.499 35.666c-19.4-5.397-39.6-8.185-60.18-8.185-29.515 0-58.182 5.765-84.771 16.748l9.001-27.005-28.461-9.487-19.009 57.029c-8.498 5.669-16.663 11.948-24.439 18.823l-11.443-11.444c1.362-13.793 1.415-41.011-15.876-58.302-22.577-22.575-62.099-15.59-66.532-14.719l-9.884 1.942-1.942 9.885c-.871 4.432-7.858 43.956 14.718 66.532 14.688 14.688 37.82 17.9 58.304 15.877l11.51 11.51c-14.6 16.71-26.537 35.2-35.593 54.944l-23.103-34.654-24.962 16.641 35.375 53.063c-5.201 19.217-7.894 39.223-7.894 59.617 0 29.499 5.651 58.126 16.419 84.662l-26.675-8.892-9.487 28.46 56.26 18.754c5.743 8.763 12.128 17.167 19.134 25.153l-10.985 10.985c-13.793-1.362-41.011-1.415-58.302 15.876-22.577 22.574-15.59 62.098-14.72 66.531l1.942 9.884 9.884 1.942c22.162 4.354 50.436 1.377 66.531-14.719 17.292-17.291 17.239-44.509 15.876-58.302l10.985-10.985c16.471 14.449 34.718 26.262 54.227 35.229l-34.411 22.94 16.641 24.961 52.837-35.224c18.95 5.1 38.692 7.744 58.843 7.744 30.266 0 59.681-5.917 86.92-17.194l-9.15 27.451 28.461 9.487 19.13-57.391c8.432-5.589 16.526-11.781 24.249-18.529l11.512 11.512c-1.363 13.793-1.415 41.011 15.876 58.302 16.178 16.179 44.555 19.039 66.531 14.719l9.885-1.942 1.942-9.885c.871-4.432 7.856-43.956-14.719-66.531-17.291-17.291-44.51-17.239-58.302-15.876l-11.444-11.443c14.55-16.457 26.444-34.653 35.481-54.079l23.147 34.721 24.961-16.641-35.323-52.984c5.165-18.915 7.843-38.608 7.843-58.695 0-29.853-5.868-58.904-17.057-85.874l27.313 9.104 9.486-28.46-57.342-19.114c-5.732-8.621-12.089-16.905-19.043-24.802zm15.877-58.304c6.522-6.523 19.097-7.812 28.751-7.54.273 9.662-1.017 22.232-7.537 28.753-6.521 6.521-19.076 7.809-28.737 7.54-.259-9.499.958-22.187 7.523-28.753zm-386.882 28.751c-9.664.273-22.232-1.017-28.753-7.538s-7.811-19.088-7.54-28.737c9.502-.259 22.188.958 28.753 7.524 6.524 6.524 7.812 19.101 7.54 28.751zm-7.54 408.097c-6.521 6.521-19.081 7.812-28.737 7.54-.259-9.5.957-22.187 7.523-28.753 6.524-6.524 19.1-7.814 28.751-7.54.274 9.663-1.016 22.232-7.537 28.753zm317.137-63.593-54.183-18.061-9.486 28.46 30.682 10.227c-26.486 13.135-56.353 20.543-87.938 20.543-7.203 0-14.312-.405-21.314-1.17l-25.269-50.539-26.833 13.417 14.612 29.223c-38.115-12.082-71.193-35.581-95.205-66.467l18.241-54.722-28.461-9.487-10.448 31.345c-12.996-26.107-20.321-55.513-20.321-86.601 0-7.561.439-15.02 1.264-22.361l50.444-25.222-13.416-26.833-29.074 14.537c12.175-38.463 35.749-71.82 66.694-96.003l54.342 18.114 9.487-28.46-31.096-10.365c26.045-13.051 55.362-20.404 86.352-20.404 7.924 0 15.754.508 23.466 1.472l25.118 50.236 26.832-13.416-14.042-28.087c37.445 12.739 70.246 36.675 94.211 67.606l-17.815 53.444 28.461 9.487 10.051-30.151c13.217 26.255 20.719 55.64 20.719 86.408 0 7.205-.409 14.316-1.182 21.321l-50.526 25.263 13.416 26.833 29.112-14.556c-12.181 37.995-35.823 70.984-66.895 94.969zm69.746 34.843c9.653-.276 22.231 1.017 28.753 7.537 6.521 6.521 7.811 19.088 7.54 28.737-9.494.257-22.188-.958-28.754-7.523-6.523-6.524-7.811-19.101-7.539-28.751z"/></svg>