<?xml version="1.0" encoding="iso-8859-1"?>
<!-- Generator: Adobe Illustrator 16.0.0, SVG Export Plug-In . SVG Version: 6.00 Build 0)  -->
<!DOCTYPE svg PUBLIC "-//W3C//DTD SVG 1.1//EN" "http://www.w3.org/Graphics/SVG/1.1/DTD/svg11.dtd">
<svg version="1.1" id="Capa_1" xmlns="http://www.w3.org/2000/svg" xmlns:xlink="http://www.w3.org/1999/xlink" x="0px" y="0px"
	 width="420.003px" height="420.003px" viewBox="0 0 420.003 420.003" style="enable-background:new 0 0 420.003 420.003;"
	 xml:space="preserve">
<g>
	<path d="M364.089,251.293c22.108-1.132,41.904-12.024,55.914-22.347c-10.29-3.4-17.388-10.604-17.388-18.945
		s7.098-15.545,17.386-18.943c-14.008-10.324-33.804-21.215-55.916-22.349c18.58-12.035,30.283-31.361,37.256-47.302
		c-10.61,2.201-20.36-0.49-24.531-7.713c-4.168-7.223-1.625-17.011,5.585-25.1c-17.286-1.934-39.871-1.47-59.584,8.596
		c10.067-19.709,10.529-42.297,8.6-59.584c-8.091,7.212-17.878,9.757-25.103,5.586c-7.223-4.17-9.913-13.919-7.713-24.529
		c-15.938,6.972-35.265,18.674-47.303,37.253c-1.131-22.109-12.026-41.912-22.347-55.915c-3.399,10.289-10.604,17.387-18.943,17.387
		c-8.34,0-15.545-7.098-18.944-17.387c-10.319,14.003-21.215,33.806-22.35,55.916c-12.033-18.579-31.36-30.281-47.3-37.254
		c2.2,10.61-0.49,20.359-7.713,24.529c-7.223,4.171-17.011,1.626-25.1-5.586c-1.932,17.287-1.47,39.874,8.597,59.585
		c-19.71-10.067-42.297-10.53-59.584-8.599c7.211,8.091,9.754,17.877,5.585,25.102c-4.17,7.223-13.919,9.914-24.53,7.713
		c6.972,15.94,18.674,35.265,37.255,47.302C33.806,169.84,14.01,180.733,0,191.057c10.29,3.4,17.388,10.604,17.388,18.945
		c0,8.339-7.098,15.545-17.387,18.943c14.009,10.324,33.805,21.216,55.917,22.347c-18.581,12.037-30.283,31.362-37.256,47.302
		c10.611-2.199,20.36,0.49,24.531,7.715c4.168,7.223,1.625,17.012-5.586,25.101c17.288,1.932,39.873,1.469,59.584-8.597
		c-10.067,19.709-10.528,42.296-8.598,59.582c8.09-7.21,17.878-9.755,25.102-5.586c7.223,4.172,9.913,13.919,7.712,24.531
		c15.94-6.973,35.266-18.674,47.301-37.254c1.133,22.109,12.03,41.913,22.349,55.916c3.4-10.289,10.605-17.387,18.945-17.387
		c8.339,0,15.544,7.098,18.943,17.387c10.32-14.003,21.214-33.806,22.348-55.915c12.036,18.579,31.364,30.28,47.302,37.253
		c-2.199-10.612,0.49-20.359,7.714-24.531c7.223-4.169,17.012-1.624,25.1,5.586c1.933-17.286,1.47-39.871-8.597-59.582
		c19.709,10.066,42.298,10.527,59.584,8.599c-7.211-8.091-9.754-17.88-5.585-25.103s13.919-9.914,24.529-7.713
		C394.368,282.656,382.665,263.332,364.089,251.293z M285.56,166.375c0,0-3.619,18.263-16.41,27.352
		c-2.816-10.261-8.225-19.45-15.487-26.808C267.936,160.383,285.56,166.375,285.56,166.375z M253.625,134.442
		c0,0,5.99,17.628-0.54,31.894c-7.358-7.262-16.545-12.662-26.804-15.482C235.374,138.064,253.625,134.442,253.625,134.442z
		 M210.002,122.756c0,0,13.99,12.256,15.482,27.87c-4.946-1.285-10.133-1.975-15.483-1.975c-5.35,0-10.537,0.689-15.483,1.975
		C196.011,135.012,210.002,122.756,210.002,122.756z M166.379,134.441c0,0,18.252,3.622,27.344,16.412
		c-10.259,2.82-19.445,8.22-26.804,15.482C160.39,152.07,166.379,134.441,166.379,134.441z M166.342,166.918
		c-7.262,7.357-12.671,16.547-15.487,26.807c-12.791-9.089-16.411-27.351-16.411-27.351S152.069,160.383,166.342,166.918z
		 M122.756,210.001c0,0,12.256-13.99,27.873-15.479c-1.288,4.942-1.974,10.133-1.974,15.479c0,5.348,0.687,10.538,1.975,15.486
		C135.012,223.994,122.756,210.001,122.756,210.001z M134.444,253.629c0,0,3.621-18.255,16.412-27.351
		c2.817,10.26,8.225,19.447,15.487,26.806C152.069,259.62,134.444,253.629,134.444,253.629z M166.379,285.562
		c0,0-5.989-17.629,0.54-31.896c7.359,7.263,16.545,12.662,26.804,15.481C184.632,281.939,166.379,285.562,166.379,285.562z
		 M210.002,297.247c0,0-13.991-12.257-15.483-27.87c4.946,1.285,10.133,1.975,15.483,1.975c5.35,0,10.537-0.688,15.482-1.975
		C223.993,284.991,210.002,297.247,210.002,297.247z M253.625,285.562c0,0-18.252-3.623-27.344-16.412
		c10.259-2.82,19.445-8.221,26.804-15.482C259.613,267.933,253.625,285.562,253.625,285.562z M253.662,253.084
		c7.262-7.356,12.67-16.547,15.487-26.806c12.792,9.096,16.41,27.35,16.41,27.35S267.935,259.62,253.662,253.084z M269.374,225.488
		c1.288-4.948,1.975-10.141,1.975-15.486s-0.687-10.537-1.974-15.479c15.617,1.489,27.873,15.479,27.873,15.479
		S284.992,223.994,269.374,225.488z"/>
</g>
<g>
</g>
<g>
</g>
<g>
</g>
<g>
</g>
<g>
</g>
<g>
</g>
<g>
</g>
<g>
</g>
<g>
</g>
<g>
</g>
<g>
</g>
<g>
</g>
<g>
</g>
<g>
</g>
<g>
</g>
</svg>
